<svg clip-rule="evenodd" fill-rule="evenodd" stroke-linejoin="round" stroke-miterlimit="2" viewBox="0 0 560 400" xmlns="http://www.w3.org/2000/svg"><path d="m233.83 27.68c-3.06-3.06-4.59-6.89-4.59-11.5s1.54-8.45 4.63-11.54c3.09-3.09 6.94-4.63 11.54-4.63s8.45 1.55 11.54 4.63c3.09 3.09 4.63 6.94 4.63 11.54s-1.53 8.44-4.59 11.5-6.92 4.59-11.59 4.59-8.53-1.53-11.59-4.59zm3.1-20.07c-2.27 2.27-3.41 5.13-3.41 8.57s1.12 6.28 3.37 8.53c2.24 2.25 5.09 3.37 8.53 3.37s6.19-1.12 8.44-3.37c2.24-2.24 3.37-5.09 3.37-8.53s-1.12-6.3-3.37-8.57-5.06-3.41-8.44-3.41-6.21 1.14-8.48 3.41zm2.71 15.03v-13.28h6.73c1.46 0 2.64.39 3.54 1.18s1.36 1.82 1.36 3.1c0 .82-.29 1.62-.87 2.4-.58.79-1.28 1.3-2.1 1.53l3.41 5.07h-4.37l-2.8-4.72h-1.05v4.72zm3.85-7.42h1.92c1.28 0 1.92-.52 1.92-1.57s-.64-1.57-1.92-1.57h-1.92zm-153.19-12.2c0 50.85-37.95 90.6-86.55 90.6v4.2h86.55v10.2h-90.3v-24.6c44.1 0 78.75-35.25 78.75-80.4zm101.55-3c13.8 0 24.15 10.8 24.15 25.35v82.65h-11.7v-82.5c0-9.15-4.65-15-12.45-15s-12.6 5.85-12.6 15v82.5h-27l-29.55-101.1h-4.5v101.1h-11.7v-105h27l29.55 101.1h4.5v-78.75c0-14.55 10.35-25.35 24.3-25.35z" fill="#fe2d2d" transform="matrix(1.37625 0 0 1.37625 100 125.662)"/></svg>